<svg id="Layer_1" data-name="Layer 1" xmlns="http://www.w3.org/2000/svg" viewBox="0 0 512 512"><defs><style>.cls-1{fill:#d8d8d8;}</style></defs><title>camera-icon</title><path class="cls-1" d="M256.63,379.77q-72.75,0-145.49-.07c-6.28,0-12.55-.71-17.58-5.52a17.9,17.9,0,0,1-5.75-13.78q.06-87.75,0-175.48c0-11.87,8.06-19.92,20.06-20q16.74-.18,33.49,0c3.83,0,6.42-1.34,8.83-4.45,7.82-10.11,15.73-20.14,23.3-30.44a19.43,19.43,0,0,1,16.32-8.2q66.5.08,133,0a19.79,19.79,0,0,1,16.37,8.08q11.93,15.33,23.54,30.89a9.1,9.1,0,0,0,8,4.12c10.5-.07,21,.14,31.5-.06,16-.31,22.87,10,22.79,22.68-.32,56.66-.4,113.32.06,170,.1,13.39-10,22.41-22.47,22.38-48.66-.13-97.32-.05-146-.05ZM355.88,261.3c2.44-54.4-46.13-100-97.77-100.79C201,159.66,154.91,205.29,155,260.91c.09,57.25,45.59,99.54,98.73,100.86C310,363.16,358,315.53,355.88,261.3Zm53.95-64a19.45,19.45,0,0,0-18.73-19.41c-9.63-.22-19.37,9.51-19.18,19.16.19,9.9,8.76,18.71,18.25,18.76C401.54,215.86,409.83,208.05,409.83,197.28Z"/><path class="cls-1" d="M127.85,161.84c-3.82,0-7.64-.11-11.45,0s-4.42-2.08-4.53-5.06.48-5.89,4.28-5.95c7.79-.14,15.59-.12,23.39,0,3.83.07,4.37,2.83,4.27,5.94s-.82,5.21-4.52,5.07S131.66,161.84,127.85,161.84Z"/><path class="cls-1" d="M317.88,261.69c1.45,34-28.51,62.49-62.85,62.13-32.56-.34-62.35-25.6-62.18-63.13.16-34.83,27.38-62.54,64.41-62.1C289.15,199,319.53,225.78,317.88,261.69Zm-53-27.87c0-4.67,0-9.33,0-14a7.45,7.45,0,0,0-1.53-5.09c-3-3.83-7.07-3.47-11-2.53-4.22,1-5.45,4.67-5.51,8.53-.13,8.5-.34,17,.07,25.49.24,4.83-1.53,5.88-5.95,5.71-8.32-.31-16.66-.2-25-.05-6.29.12-9.34,3.36-9.22,9.31.12,5.69,3.16,8.58,9.26,8.62,8.67.05,17.34.17,26-.07,3.66-.1,5,.88,4.88,4.73-.26,9-.17,18-.05,27a9.19,9.19,0,0,0,9.63,9.31c4.44-.15,8.33-4.46,8.35-9.37,0-8.5.28-17-.09-25.49-.21-4.7,1-6.45,6-6.2,8.14.41,16.33.18,24.49.09,6.18-.07,9.27-2.67,9.64-7.79.42-6-3.33-10.06-9.57-10.14-8.67-.1-17.34-.18-26,0-3.56.09-4.67-1.17-4.48-4.61C265.07,242.83,264.88,238.32,264.88,233.82Z"/></svg>