<svg id="Layer_1" data-name="Layer 1" xmlns="http://www.w3.org/2000/svg" viewBox="0 0 512 512"><defs><style>.cls-1{fill:#51D0DE;}</style></defs><title>cancel-icon</title><path class="cls-1" d="M497.6,47.24,290.26,254.58l209.5,209.5a23.18,23.18,0,0,1,0,32.79l-.24.25a23.19,23.19,0,0,1-32.79,0L257.23,287.61,47.34,497.51a23.19,23.19,0,0,1-32.79,0h0a23.19,23.19,0,0,1,0-32.8L224.44,254.82l-210-210a23.18,23.18,0,0,1,0-32.79l.24-.24a23.18,23.18,0,0,1,32.79,0l210,210L464.81,14.45a23.19,23.19,0,0,1,32.79,0h0A23.18,23.18,0,0,1,497.6,47.24Z"/></svg>