<svg id="Layer_1" data-name="Layer 1" xmlns="http://www.w3.org/2000/svg" viewBox="0 0 512 512"><defs><style>.cls-1{fill:#bf4aa8;}</style></defs><title>grab-icon</title><path class="cls-1" d="M504.84,254c-2.11,37.38-28.56,62.64-63.2,62.29-37.38-.37-62.57-28.38-62.18-62.93.41-36.25,27.39-62.1,62.51-62C478.35,191.39,503.23,218.66,504.84,254Z"/><path class="cls-1" d="M258.27,506.72c-33.18.77-62.92-28.38-62-64.1A62.56,62.56,0,0,1,260.16,382c36.95.8,62,31.93,61.1,64.59C320.33,479.61,292.37,506.9,258.27,506.72Z"/><path class="cls-1" d="M6.4,444.26a62.07,62.07,0,0,1,62.53-62.32c34.14,0,62.36,28.61,62.28,63-.08,34-28.33,61.39-62.71,61.86S5,477.58,6.4,444.26Z"/><path class="cls-1" d="M441.74,130.52c-29.09,1-62-21.8-62.29-62-.26-37.64,29.74-62.93,63-62.67,32.19.25,62,24.66,62,62.5C504.42,108,471.75,131.69,441.74,130.52Z"/><path class="cls-1" d="M6.4,68C6.45,32.87,34,5.81,69.6,5.85c33.35,0,61.93,28.67,61.53,62.39-.48,39.65-33.74,63.46-64.49,62.52C34.31,129.79,4.89,101.44,6.4,68Z"/><path class="cls-1" d="M258.46,130.52A61.83,61.83,0,0,1,196.4,68.28c0-35,27.88-62.48,63.27-62.43,33.91,0,61.5,28.34,61.44,63C321.05,103.19,293.27,130.53,258.46,130.52Z"/><path class="cls-1" d="M6.4,253.51c-1-28.95,21.79-62.12,62-62.21,36.9-.08,62.59,28.41,62.61,62.51s-25.8,62.63-62.62,62.52C28.59,316.21,5.2,283.48,6.4,253.51Z"/><path class="cls-1" d="M441.82,506.73c-31.36.63-62.67-24-62.38-62.54s30.65-62.44,63-62.16c32.87.3,62.06,25,62.08,62.43C504.5,483.48,472.7,507.53,441.82,506.73Z"/><path class="cls-1" d="M321.11,254.3c.14,31.31-24.07,62-62.35,62-38.64,0-62.8-31.44-62.45-63.27.35-31.38,24.75-62.16,62.76-61.74C299.82,191.78,322,225,321.11,254.3Z"/></svg>