<svg id="Layer_1" data-name="Layer 1" xmlns="http://www.w3.org/2000/svg" viewBox="0 0 512 512"><defs><style>.cls-1{fill:#bf4aa8;}</style></defs><title>hourglass-icon</title><path class="cls-1" d="M150.56,400.86c.14-31.42,12.17-57.58,34.19-79.51Q204.4,301.77,224,282.12c14.86-14.93,15-35.85.23-50.79-13.59-13.74-27.32-27.34-41-41-25.06-25.08-35.76-55.67-31.86-90.5,5.35-47.82,39.21-89,92.14-96.49,62.6-8.81,114.33,32.08,123.75,91.44,6,37.92-5.65,70.18-32.57,97.19-12.94,13-25.94,25.9-38.87,38.89-15.54,15.61-15.52,36.17.07,51.85,13.39,13.47,26.89,26.83,40.27,40.31,19.13,19.27,30.08,42.25,32.22,69.52,4.41,56.08-33.74,105.33-84,116C220,522.16,161.7,481.51,152,417.73,151.19,412.16,151,406.49,150.56,400.86ZM260.17,16.94c-.09-.47.1.47,0,0A94.26,94.26,0,0,0,227.86,22c-62,21.49-83.52,101.47-40.54,151.17,14.14,16.34,29.77,31.48,45.55,46.29,21.59,20.26,22.18,53.53-.05,74.51-13.69,12.92-26.79,26.46-40,39.89-23.13,23.56-32.07,52.05-26.21,84.24,9.75,53.65,56.7,86.23,110,77,36.13-6.24,60.23-27.73,72.07-61.74s6.83-66.38-17.19-94c-14.31-16.42-30.51-31.19-45.81-46.76a60.67,60.67,0,0,1-6.54-7.52c-14.4-20.54-11.92-45.8,6.5-64.6,13.76-14,27.95-27.67,41.64-41.78,23-23.72,31.18-52.35,25.42-84.52C345,51.61,309,16,260.17,16.94Z"/><path class="cls-1" d="M260.15,131.08q29.24,0,58.49,0c8,0,9.88,2.81,7.15,10.24-6.46,17.58-18.77,30.79-31.93,43.5-10,9.7-19.65,19.85-29.38,29.88-3.07,3.18-6.08,3.39-9,.45-11.17-11.41-22.28-22.89-33.61-34.13-11.69-11.6-22.18-24-27.94-39.7-2.71-7.39-.74-10.23,7.19-10.24Q230.65,131,260.15,131.08Z"/><path class="cls-1" d="M259,482c-19.78-1.35-35.8-7.11-50.33-18.63a40.83,40.83,0,0,1-7-6.87c-5.45-7-4.6-11.23,3.81-16.49,16.91-10.57,34.17-20.59,51.4-30.61a6.92,6.92,0,0,1,5.9,0c17.37,10.13,34.72,20.3,51.79,30.93,8.48,5.28,8.79,10.76,1.71,18.23-10.15,10.73-23.14,16.64-37.1,20.44a88.48,88.48,0,0,1-12.36,2.43A47.53,47.53,0,0,1,259,482Z"/></svg>