<svg id="Layer_1" data-name="Layer 1" xmlns="http://www.w3.org/2000/svg" viewBox="0 0 512 512"><defs><style>.cls-1{fill:#bf4aa8;}</style></defs><title>icon_cog</title><path class="cls-1" d="M255.92,6.9c11.88,0,23.75,0,35.62,0,11.69,0,19,7.37,19,19.16.05,16.39.12,32.78-.06,49.17,0,3.58,1.2,5.45,4.43,6.79,7.87,3.27,15.76,6.54,23.36,10.36,4,2,6.62,1.28,9.62-1.71,11.23-11.23,22.68-22.24,34-33.4,11.05-10.91,20.53-10.88,31.61,0q23.43,23,47,45.91c9,8.73,9.46,18.7.48,27.61-12.58,12.47-25.26,24.86-38.13,37-3.45,3.26-4.22,6.07-2.17,10.44,3,6.34,5.39,12.95,7.76,19.55,1.27,3.52,3.25,4.83,7,4.8,18.73-.17,37.46-.09,56.19-.07,12.32,0,19.55,7.25,19.57,19.68q0,33.6,0,67.22c0,11.68-7.78,19.48-19.55,19.53-18.9.09-37.8.13-56.69-.06-4,0-6,1.11-7.38,4.95a205.38,205.38,0,0,1-7.84,19.52c-1.7,3.66-1.1,5.89,1.78,8.65,13.3,12.69,26.42,25.59,39.52,38.5,8.62,8.49,8.66,18.31,0,26.84q-25,24.64-50.27,49c-7.71,7.46-18.45,7.46-26.14.05-12.64-12.19-25.25-24.4-37.7-36.77-2.65-2.63-4.78-3.28-8.26-1.58-7.81,3.8-15.79,7.25-23.8,10.62-3.21,1.35-4.46,3.23-4.42,6.81.18,16.39.09,32.78.07,49.16,0,12.32-7.68,20-20.06,20q-34.62,0-69.24,0c-12.42,0-20.1-7.62-20.12-19.92,0-16.38-.12-32.77.08-49.16,0-3.79-1.29-5.74-4.7-7.14-7.88-3.22-15.73-6.57-23.41-10.25-3.68-1.76-5.94-1-8.7,1.79-12.2,12.15-24.6,24.11-37,36.08-8.16,7.88-18.76,7.9-26.87,0Q75.76,432,51,407.81c-9.17-9-9.16-18.61-.07-27.56,13-12.79,26-25.57,39.16-38.15,2.77-2.65,3.22-4.92,1.69-8.32q-4.55-10-8.47-20.36c-1.26-3.3-3.13-4.49-6.71-4.46-18.39.17-36.79.09-55.18.07-13.7,0-21-7.36-21-21.14q0-32.61,0-65.22c0-13,7.09-20.08,20.16-20.09,18.39,0,36.79-.14,55.18.1,4.3,0,6.32-1.54,7.69-5.36q3.72-10.38,8.1-20.51c1.44-3.31.75-5.5-1.76-7.91-12.06-11.57-24-23.3-36-34.93-4.84-4.7-10.34-9.35-9.14-16.87.69-4.35,2.3-9.4,5.25-12.41C66.25,88.11,83.06,72.05,99.72,55.85c9.29-9,19.44-9,28.73.08,11.61,11.33,23.27,22.6,34.69,34.12,3.23,3.26,6.08,3.75,10.18,1.83,7.41-3.47,14.93-6.75,22.61-9.55,4.24-1.55,5.37-3.93,5.31-8.2-.23-15.88-.11-31.77-.08-47.66,0-12.4,7.22-19.55,19.64-19.57Q238.36,6.89,255.92,6.9Zm1.81,253.84a24.82,24.82,0,0,0-3.84,1.45c-20.71,11.92-41.43,23.82-62.06,35.89-6,3.51-5.94,7.29,0,10.76,20.52,11.91,41,23.83,61.75,35.41a9.83,9.83,0,0,0,8.2,0c20.69-11.62,41.19-23.58,61.69-35.53,5.6-3.26,5.62-7.25,0-10.53q-30.54-17.79-61.2-35.37A46.63,46.63,0,0,0,257.73,260.74Zm-3.44-46c0-11.7.05-23.4,0-35.1,0-7.07-3.5-9.26-9.53-5.81-20.3,11.61-40.51,23.39-60.79,35a8.6,8.6,0,0,0-4.65,8.19c0,23.06-.05,46.13,0,69.19,0,7.16,4,9.52,10.08,6,20.16-11.52,40.21-23.24,60.35-34.79,3.28-1.88,4.63-4.35,4.58-8.14C254.19,237.81,254.29,226.28,254.29,214.75Zm81.24,37.47c0-11.69-.12-23.39.06-35.07a8.62,8.62,0,0,0-4.84-8.5c-20.29-11.6-40.49-23.34-60.77-35-5.82-3.34-9.33-1.35-9.35,5.39-.1,23.38,0,46.76-.07,70.14a8.49,8.49,0,0,0,4.65,8.14C285.5,269,305.71,280.7,326,292.32c6.2,3.55,9.49,1.6,9.53-5.54C335.57,275.26,335.53,263.74,335.53,252.22Z"/></svg>