<svg id="Layer_1" data-name="Layer 1" xmlns="http://www.w3.org/2000/svg" viewBox="0 0 512 512"><defs><style>.cls-1{fill:#bf4aa8;}</style></defs><title>plus-icon</title><path class="cls-1" d="M492.51,273.23h-218V493.49a17.23,17.23,0,0,1-17.24,17.23H257a17.22,17.22,0,0,1-17.23-17.23V273.23H19.13A17.24,17.24,0,0,1,1.89,256h0a17.24,17.24,0,0,1,17.24-17.24H239.8V18A17.23,17.23,0,0,1,257,.72h.26A17.24,17.24,0,0,1,274.53,18V238.75h218A17.24,17.24,0,0,1,509.75,256h0A17.24,17.24,0,0,1,492.51,273.23Z"/></svg>