<svg id="Layer_1" data-name="Layer 1" xmlns="http://www.w3.org/2000/svg" viewBox="0 0 512 512"><defs><style>.cls-1{fill:#bf4aa8;}</style></defs><title>spin-icon</title><path class="cls-1" d="M409.46,283.13C406.21,376.74,318.81,449,220.57,426.5A150,150,0,0,1,109.34,319.4c-24.68-92.2,35.72-175.91,119.34-191.75a5.64,5.64,0,0,1,6.67,5.51l.22,28.13a5.64,5.64,0,0,0,8.46,4.83L376.49,89.65a5.64,5.64,0,0,0,0-9.76L244,3.37a5.63,5.63,0,0,0-8.45,4.79L235,40.55a5.65,5.65,0,0,1-5,5.51C112.62,59.45,21.74,159.89,23.5,281.19,25.35,409.27,131.56,512.5,259.64,510.9c125.47-1.58,227.07-102.25,230.13-227.35a5.66,5.66,0,0,0-5.64-5.82H415.08A5.61,5.61,0,0,0,409.46,283.13Z"/></svg>