<svg id="Layer_1" data-name="Layer 1" xmlns="http://www.w3.org/2000/svg" viewBox="0 0 512 512"><defs><style>.cls-1{fill:#51cfdd;}</style></defs><title>timerr-icon</title><path class="cls-1" d="M492.43,256.08c.18,130.6-106.77,238.09-239.62,236.63C124,491.29,17.28,385.49,18.89,252.7,20.45,124.07,126.13,17.55,258.77,19.14,387.35,20.67,492.63,125.66,492.43,256.08ZM255.37,438.4c100.71,0,181.56-80.93,182.75-180.08,1.23-102.43-81-183.81-180.27-184.86-102.34-1.09-184.18,81.23-184.57,181C72.87,356.35,154.43,438.39,255.37,438.4Z"/><path class="cls-1" d="M366.14,135.71c-5.26,10.37-10.45,20.58-15.62,30.8-19.42,38.35-39.3,76.47-58,115.15-8.52,17.59-25.22,22.78-38.8,21.86-27.09-1.84-48-25.17-46.53-52.31.74-13.51,6.33-24.47,18.37-31.71Q294,178.33,362.39,137C363.37,136.4,364.19,135.26,366.14,135.71Z"/></svg>