<svg id="Layer_1" data-name="Layer 1" xmlns="http://www.w3.org/2000/svg" viewBox="0 0 512 512"><defs><style>.cls-1{fill:#bf4aa8;}</style></defs><title>tool-icon</title><path class="cls-1" d="M13,131.92c2,1.66,4,3.25,6,5,14.55,13.22,29.13,26.41,43.57,39.75,2.88,2.65,5.53,3.42,9.44,2.28q38.56-11.24,77.26-22c5.49-1.54,9-4.78,10.49-10.25q11-39.68,22-79.34c1.08-3.91.25-7-2.82-9.84-13.59-12.79-27-25.75-40.48-38.67-1.88-1.82-3.6-3.8-6.24-6.58,2.42-.58,3.89-1.34,5.25-1.18,34.91,4,63,20.32,84.37,48,14.14,18.35,22.86,39,23.57,62.48.23,7.78,0,15.57-.15,23.36-.49,20.1,6.67,36.73,21,51q110.19,109.71,220,219.84c23.12,23.15,19.79,59.73-7,78.13C460,507,432.93,504.56,416.17,488c-16.35-16.16-32.54-32.49-48.8-48.75q-84.31-84.32-168.58-168.7c-14.36-14.44-31.64-21.65-51.5-23.58-14.37-1.4-29-1.5-43.1-4.14C58,234.21,20.53,195,13.05,148.58c-.85-5.27-1.35-10.6-2-15.9Z"/><path class="cls-1" d="M161.61,70.06c-.56,2.25-.88,3.71-1.29,5.14q-7.48,25.88-15,51.75c-1.81,6.18-3.45,6.59-8,2.26-13.82-13.27-27.58-26.6-41.51-39.76-2.74-2.59-3.65-4.93-2.51-8.7,5.29-17.51,10.27-35.11,15.42-52.66,1.87-6.4,3.43-6.75,8.24-2.12Q137.51,45.73,158,65.47A38.34,38.34,0,0,1,161.61,70.06Z"/><path class="cls-1" d="M70.18,158a20.57,20.57,0,0,1-3.6-2.35Q44.91,135,23.36,114.16c-3.66-3.56-3.08-5.46,1.92-6.71C43.65,102.85,62,98.26,80.47,94a8.9,8.9,0,0,1,7,1.82c14.56,13.68,28.9,27.59,43.23,41.52,3.33,3.24,3,5.2-1.25,6.27-19,4.81-38.05,9.44-57.08,14.12C71.86,157.84,71.36,157.87,70.18,158Z"/><path class="cls-1" d="M20.36,97.17c-.53-1.24-2.08-3-1.74-4.33q7.56-28.16,15.69-56.16A6.56,6.56,0,0,1,38.41,33c18.34-4.7,36.74-9.2,55.14-13.67,4.41-1.07,6,.59,4.83,4.89C93.23,42.3,88.08,60.35,82.67,78.33c-.56,1.85-2.6,4.14-4.37,4.6C60,87.74,41.58,92.21,23.21,96.76,22.73,96.88,22.22,96.91,20.36,97.17Z"/></svg>