<svg id="Layer_1" data-name="Layer 1" xmlns="http://www.w3.org/2000/svg" viewBox="0 0 548 548"><defs><style>.cls-1{fill:#bf4aa8;}</style></defs><title>logo_research</title><path class="cls-1" d="M497.62,412.4c0,5.87-2.66,9.37-7,11.89q-52.17,30.06-104.3,60.17c-33.9,19.57-67.88,39-101.61,58.83-7.31,4.3-13.4,4.6-20.81.29Q161.5,484.08,58.88,425c-11.6-6.7-11.65-17.73-.08-24.41q103-59.49,205.92-119c6.49-3.77,12.14-3.77,18.65,0q103.1,59.76,206.36,119.23C494.51,403.56,497.9,407.09,497.62,412.4Zm-223-34.94c-15.07,0-26.47,3.62-36.35,11.49-16.28,13-16.54,33.92-.58,47.23,19.52,16.28,53.33,16.3,72.84,0,15.25-12.72,15.92-32.22,1.28-45.6C301.3,381.06,288.56,377.37,274.58,377.46Z"/><path class="cls-1" d="M281.32,134.94q0-60.22,0-120.45c0-7.75,3.38-12.57,10.53-13.35,3.29-.36,7.22,1,10.22,2.72q54,30.87,107.75,62.1c32.73,18.9,65.41,37.88,98.24,56.61,6.72,3.83,9.53,9,9.52,16.61q-.18,117.95-.07,235.9c0,1.17.06,2.34,0,3.5-.89,10.65-10.45,16.06-19.74,10.82-18.27-10.31-36.38-20.9-54.55-31.38q-76.79-44.32-153.59-88.6c-5.82-3.35-8.42-7.69-8.38-14.53C281.42,214.91,281.32,174.92,281.32,134.94Zm105.79,4.8c.34-6.3.11-12.7,1.17-18.88,1.36-7.88,5.27-9.56,12.6-6.14,10.19,4.75,14.68,14,15.31,24.15.73,11.83,6.77,17.69,17,21.14,6.95,2.34,11.34-.48,11-7.77-.72-14.32-4.25-27.9-11.51-40.38-9.15-15.73-21.57-27.79-39.81-31.69-14.06-3-25.59.61-30.78,17.12a62,62,0,0,0-2.36,19.16c.23,17.12,1.29,34.23,1.75,51.35.52,19.63.62,39.27,1.19,58.9a104.8,104.8,0,0,0,2,19.8c5.53,24.55,19.06,43,42.71,53,17.16,7.26,32.81-.3,38-18.14a70,70,0,0,0,1.39-7.83c2.63-15.54-3.34-24.59-18.65-28.35-3.93-1-6.62.53-7.81,4.22a21.87,21.87,0,0,0-.72,6.38c-.2,11.4-7,15.29-16.91,9.53-8.71-5.08-11.63-13.51-12.14-22.78-1-17.26-1.65-34.55-2-51.83Z"/><path class="cls-1" d="M266.53,136.59c0,39.16-.07,78.32.06,117.48,0,6.94-2.78,11.62-8.69,15Q156.17,327.72,54.51,386.43c-12.74,7.34-23,1.24-23-13.51q0-117-.08-233.95c0-7.54,2.93-12.42,9.4-16.15Q142.12,64.52,243.27,5.92c5.36-3.1,10.62-4.79,16.4-1.29,5.5,3.32,6.93,8.38,6.91,14.49C266.48,58.27,266.53,97.43,266.53,136.59Zm-159,100.33h.16c0,24.48,0,49,0,73.45,0,2.46-.06,5.38,1.18,7.24s4.52,4,6.1,3.5c8.66-2.81,19.81-9.35,19.58-22.14-.4-22.65-.08-45.31-.14-68a19.27,19.27,0,0,1,6.48-15.09c4.39-3.95,7.31-3.15,9.17,2.42,1.63,4.88,3,9.85,4.54,14.77,4.75,15.41,9.46,30.84,14.3,46.23,2,6.28,5.18,7.53,10.94,4.48,2.36-1.24,4.64-2.63,6.88-4.07,8.28-5.32,11.33-13.94,8.16-23.32q-9.64-28.6-19.42-57.16a17.67,17.67,0,0,1,1.83-15.72,135.26,135.26,0,0,0,8.89-16.72c7.45-17.61,8.28-36.23,6.83-54.92a73.54,73.54,0,0,0-5-20.7c-3.73-9.58-11.7-13.77-21.56-11.63a67.26,67.26,0,0,0-17.17,6.28c-10.28,5.47-20,11.93-30.22,17.56-8.89,4.9-12.67,12.27-12.42,22.13.33,13.14.74,26.28.81,39.41C107.61,189,107.52,212.93,107.52,236.92Z"/><path class="cls-1" d="M134.32,158c0-7.16.11-14.32,0-21.48s3.1-12.47,9.1-16.07A66.22,66.22,0,0,1,154.05,115c5.83-2.16,9.65-.3,10.84,5.75,2.86,14.52,3.09,29.15-1.55,43.36-3.62,11.09-12.84,17.08-22.73,21.91-3.58,1.76-6.05-.41-6.13-5.09-.12-7.66,0-15.32,0-23Z"/></svg>